<svg version="1.1" id="Layer_1" xmlns="http://www.w3.org/2000/svg" xmlns:xlink="http://www.w3.org/1999/xlink" x="0px" y="0px"
	 width="100%" viewBox="0 0 480 240" enable-background="new 0 0 480 240" xml:space="preserve">
<path fill="#000000" opacity="1.000000" stroke="none" 
	d="
M269.614258,146.930374 
	C263.016571,149.604187 260.898590,148.783676 258.305145,142.480896 
	C254.204376,147.085327 248.938446,149.196548 243.122604,150.038101 
	C238.137512,150.759445 236.813171,149.258270 237.194031,144.294403 
	C237.816818,136.177582 241.928940,129.136261 244.023712,121.549355 
	C243.178711,119.920265 240.828079,121.884300 240.331314,119.795570 
	C244.309753,116.246834 252.410858,115.399124 256.318024,118.265007 
	C259.500275,120.599197 260.066010,123.677963 258.102203,127.054039 
	C257.289734,128.450851 256.052246,129.600464 254.802155,131.111343 
	C256.957336,133.127625 259.314117,135.003937 259.457153,138.751190 
	C261.585114,135.986389 263.106445,133.573227 265.684723,132.206116 
	C267.680634,131.147751 269.988037,130.097488 271.565186,132.259949 
	C273.247101,134.566055 272.525970,137.190125 270.255280,138.874054 
	C268.022034,140.530197 265.487488,141.780029 262.484283,143.565323 
	C265.212372,146.752274 267.495819,145.237610 269.724091,143.593613 
	C271.384277,142.368698 272.460571,140.727661 272.950256,138.689087 
	C273.582458,136.057114 274.325775,133.550781 277.916138,135.655884 
	C278.969757,136.273651 279.784607,135.454346 280.627502,134.948486 
	C282.405518,133.881393 284.313782,132.975052 286.152527,134.577942 
	C287.987671,136.177673 287.970764,138.327515 287.407532,140.571533 
	C287.138641,141.642914 286.391144,142.731308 287.442139,144.557388 
	C294.319580,138.235657 293.058990,126.943222 301.576202,121.472382 
	C303.781647,125.832916 299.247772,128.152206 299.606995,131.852554 
	C302.660339,133.392395 304.949402,132.946091 306.579224,129.446396 
	C308.051147,126.285820 309.704620,123.191254 311.526855,120.220184 
	C312.441254,118.729294 313.574432,117.102158 315.890686,117.149727 
	C318.137817,119.162636 317.419098,121.596397 316.661987,123.977455 
	C315.017944,129.147842 311.945587,133.491119 308.602783,137.672958 
	C307.054291,139.610138 305.391266,141.558807 307.228851,144.186813 
	C310.253540,144.411118 310.553497,142.068466 311.274658,140.355484 
	C312.530212,137.373367 314.142334,134.652054 316.835175,132.831955 
	C319.043854,131.339096 321.857788,129.573853 323.836914,132.587662 
	C325.480652,135.090759 324.343079,137.779388 321.695526,139.416534 
	C319.480682,140.786133 317.179657,142.016281 314.849121,143.346802 
	C317.956848,146.384384 321.784241,145.205704 324.071259,140.727020 
	C325.049225,138.811935 325.769806,136.763718 326.776764,134.865860 
	C327.359436,133.767685 328.458771,133.141647 329.735229,133.760117 
	C331.205536,134.472504 330.625763,135.660995 330.249939,136.778717 
	C329.646820,138.572311 328.254883,140.238937 329.232971,142.449142 
	C333.786285,141.957306 333.181885,136.155441 337.073792,134.616211 
	C339.202698,137.501984 337.306854,140.016754 337.252441,142.617691 
	C339.052368,142.827759 339.449219,140.291138 341.367401,140.562027 
	C341.424072,140.956223 341.706360,141.575836 341.517334,141.802673 
	C337.442139,146.692856 332.846588,151.126434 329.313873,156.508392 
	C328.322266,158.019028 325.878235,158.025970 324.425537,156.417694 
	C323.097137,154.947006 323.786530,153.314636 324.845428,151.869186 
	C326.461823,149.662628 329.112976,148.745056 331.391174,146.752304 
	C327.299805,145.765457 323.645386,144.242020 320.033905,147.414871 
	C319.156311,148.185852 317.070160,148.806488 316.335968,148.312592 
	C312.191101,145.524307 307.206024,149.048569 303.153503,146.295395 
	C302.160400,145.620682 301.252533,146.355042 300.399597,146.855133 
	C297.485718,148.563583 294.585297,149.638733 291.872894,146.536743 
	C290.980774,145.516479 290.179321,146.107880 289.210358,146.395111 
	C283.348602,148.132660 282.143188,146.970718 283.264862,140.711746 
	C283.446838,139.696304 283.718231,138.749466 282.341309,137.696579 
	C279.436768,138.181686 278.138153,140.880219 276.758026,143.148956 
	C275.117767,145.845230 273.158905,147.347244 269.614258,146.930374 
M241.778687,140.924637 
	C241.455215,142.333435 240.705444,143.718994 241.713959,145.612717 
	C246.407074,145.818588 250.703018,144.550598 254.013947,140.914398 
	C256.955566,137.683823 255.963425,134.638351 251.839920,133.460663 
	C245.100677,131.535889 244.234283,132.132629 241.778687,140.924637 
M247.716858,122.214531 
	C246.719421,124.737144 244.948547,127.093170 245.792633,130.262207 
	C249.113800,129.995773 251.937958,129.240677 253.963028,126.719582 
	C255.542282,124.753502 256.514099,122.553711 254.166580,120.565010 
	C251.904099,118.648369 249.637131,118.511101 247.716858,122.214531 
M295.351166,142.937790 
	C295.824402,146.254288 297.666504,145.753128 299.522888,144.263535 
	C302.388977,141.963745 303.579437,138.907013 303.332428,135.289993 
	C297.503265,134.381775 295.239929,137.002167 295.351166,142.937790 
z"/>
<path fill="#000000" opacity="1.000000" stroke="none" 
	d="
M180.569687,143.269363 
	C182.584183,141.128464 182.913742,138.545044 183.989761,136.314255 
	C184.845291,134.540649 185.765137,132.465057 188.427460,134.223221 
	C189.135452,137.111649 185.936005,139.351288 187.114700,142.431702 
	C191.986633,142.325699 190.913971,135.570267 195.353241,134.975830 
	C197.352112,138.131332 194.399033,140.756088 194.748566,143.932541 
	C197.208389,142.459595 198.131546,140.121109 199.323776,138.014832 
	C200.918167,135.198090 202.860306,132.755508 206.062820,131.679108 
	C207.663162,131.141220 209.429993,130.609024 210.681335,132.195480 
	C211.978989,133.840622 211.507446,135.632721 210.476669,137.305969 
	C208.529678,140.466507 204.998886,141.407440 201.099762,143.503998 
	C204.610840,146.859497 207.369980,145.446548 209.204163,143.030487 
	C211.889618,139.493073 215.677521,136.738266 217.127762,132.268158 
	C217.464905,131.228973 217.912613,129.975769 219.696640,130.225876 
	C220.704895,134.077438 221.731781,138.000183 222.749954,141.889603 
	C224.518372,141.967377 225.000824,139.697937 226.752380,140.070770 
	C224.835449,146.450897 217.779434,149.770782 212.161926,146.880463 
	C211.004959,146.285187 210.200653,146.082565 208.970032,146.580231 
	C201.102844,149.761856 202.735428,148.762085 197.203445,145.519348 
	C194.292816,146.626404 192.216827,148.569412 190.980560,151.522842 
	C190.411316,152.882751 189.525345,154.155472 188.583191,155.303818 
	C186.952850,157.290970 184.724548,158.558441 182.607513,156.481903 
	C180.605728,154.518387 182.045532,152.408966 183.765121,150.906052 
	C185.477219,149.409683 187.404388,148.159409 190.051422,146.197891 
	C185.425140,146.164749 182.132874,145.128708 178.153183,147.089157 
	C175.483444,148.404282 171.379105,147.099442 167.896545,148.296661 
	C166.177887,148.887497 165.059372,147.098114 164.708221,145.235611 
	C163.694077,139.856796 170.064392,131.797882 175.605194,131.765549 
	C178.683487,131.747574 180.927414,132.960297 179.780411,136.698135 
	C179.246384,138.438461 178.456573,140.099823 177.912109,141.837509 
	C176.969193,144.846863 178.348587,144.653931 180.569687,143.269363 
M174.459030,139.948120 
	C175.373184,138.380859 177.616165,137.244156 176.169113,134.867203 
	C171.626282,136.257233 169.278061,139.541306 169.323730,144.638580 
	C171.787476,144.169388 172.619827,141.993454 174.459030,139.948120 
z"/>
<path fill="#000000" opacity="1.000000" stroke="none" 
	d="
M146.088684,120.138382 
	C147.425018,119.081909 148.463959,118.247459 149.586716,117.547462 
	C150.924713,116.713249 152.407608,116.332108 153.796494,117.355568 
	C155.273605,118.444023 154.926453,119.963089 154.491089,121.452812 
	C154.071213,122.889496 153.678391,124.334351 153.293274,125.780830 
	C152.821487,127.552734 152.021622,129.456345 154.670776,130.249100 
	C157.190720,131.003204 159.280106,130.723770 160.331741,127.868378 
	C161.479218,124.752747 162.664505,121.649544 163.923691,118.577980 
	C164.141571,118.046455 164.808563,117.699043 166.384598,117.622444 
	C163.978363,128.153992 161.572128,138.685547 159.130829,149.370621 
	C156.014557,149.044693 155.571365,147.189117 155.848038,145.092758 
	C156.151703,142.791794 156.805466,140.539307 157.215210,138.249329 
	C157.517334,136.560852 158.733704,134.276947 156.068008,133.684784 
	C153.841156,133.190140 151.250275,133.358154 150.226578,136.161606 
	C149.029449,139.440079 148.062073,142.802505 146.861725,146.079666 
	C146.321793,147.553802 146.009781,149.473312 143.688583,149.252029 
	C142.422882,148.330139 142.883148,147.128326 143.286469,146.092667 
	C145.442154,140.557205 144.641190,134.274673 147.673401,128.467667 
	C143.048874,126.965736 142.692413,124.064621 146.088684,120.138382 
z"/>
</svg>